<?xml version="1.0" encoding="utf-8"?>
<!-- Generator: Adobe Illustrator 21.0.0, SVG Export Plug-In . SVG Version: 6.00 Build 0)  -->
<svg version="1.1" id="Layer_1" xmlns="http://www.w3.org/2000/svg" xmlns:xlink="http://www.w3.org/1999/xlink" x="0px" y="0px"
	 viewBox="0 0 50 50" style="enable-background:new 0 0 50 50;" xml:space="preserve">
<style type="text/css">
	.st0{display:none;}
	.st1{display:inline;fill:#A64D79;}
	.st2{font-family:'Syncopate-Regular';}
	.st3{font-size:3.2552px;}
	.st4{display:inline;fill:#333333;}
	.st5{fill:#333333;}
	.st6{fill:#A64D79;}
</style>
<g id="bg">
</g>
<g id="combo" class="st0">
	<text transform="matrix(0.9124 0 0 1 8.0728 38.5923)" class="st1 st2 st3">k</text>
	<text transform="matrix(1.0462 0 0 1 4.7529 38.665)" class="st4 st2 st3">l</text>
</g>
<g id="L">
	<g>
		<path class="st5" d="M13.1,26.7c0,1.3,0.1,2.4,0.4,3.3c0.2,0.9,0.7,1.7,1.5,2.3c0.7,0.6,1.8,1,3.2,1.3c1.4,0.3,3.3,0.4,5.6,0.4
			c4.7,0,9.4,0,14.1,0c0.1,0.8,0.2,1.7,0.4,2.5h-15c-2.6,0-4.7-0.2-6.3-0.6c-1.7-0.4-3-0.9-4-1.7s-1.7-1.7-2.1-2.9
			c-0.4-1.2-0.6-2.6-0.6-4.2v-19h2.9L13.1,26.7z"/>
	</g>
</g>
<g id="K_bottom" class="st0">
	<text transform="matrix(0.9124 0 0 1 5.4033 38.6572)" class="st1 st2 st3">k</text>
</g>
<g id="K_top">
	<g>
		<path class="st6" d="M36.1,36.5C36,35,35.6,33.6,35,32.4c-0.6-1.2-1.4-2.4-2.3-3.3s-2-1.8-3.2-2.5s-2.5-1.3-3.9-1.7
			c-1.4-0.5-2.8-0.8-4.2-1c-1.4-0.2-2.5-0.2-4.3-0.3c-1.6,0-3,0-4,0c0-0.7,0-1.5,0-2.2c0.8,0,1.9,0,3.3-0.1c2-0.1,3-0.1,4.3-0.4
			c1.4-0.3,2.8-0.7,4.1-1.2c1.3-0.5,2.5-1.2,3.6-1.9c1.1-0.8,2.1-1.6,3-2.6c0.9-1,1.6-2,2.1-3.2c0.6-1.2,0.9-2.4,1-3.8H37
			c-0.1,1.5-0.5,2.9-1,4.1c-0.5,1.2-1.1,2.3-1.9,3.3c-0.8,1-1.6,1.8-2.5,2.6c-0.9,0.7-1.9,1.4-2.8,1.9c-1,0.5-1.9,1-2.8,1.3
			c-0.9,0.4-1.7,0.6-2.5,0.8c0.9,0.2,1.9,0.4,3,0.7c1.1,0.3,2.2,0.7,3.2,1.2c1.1,0.5,2.1,1.2,3.1,1.9c1,0.8,1.9,1.6,2.7,2.7
			c0.1,0.1,0.2,0.3,0.4,0.5c0.2,0.3,1,1.4,1.6,3c0.7,1.7,1,3.2,1.2,4.3C37.8,36.5,37,36.5,36.1,36.5z"/>
	</g>
</g>
</svg>
